# xmcd
#
# Track frame offsets:
#	150
#	23004
#	44753
#	64468
#	81874
#	103033
#	122200
#	144162
#	161122
#	180696
#	197175
#
# Disc length: 2846 seconds
#
# Revision: 0
# Processed by: cddbd v1.5.2PL0 Copyright (c) Steve Scherf et al.
# Submitted via: EasyCDDAExtractor 16.0.8.1
#
DISCID=9f0b1c0b
DTITLE=Victor Manuelle - Soy
DYEAR=2008
DGENRE=Salsa
TTITLE0=Yo Te Queria Querer
TTITLE1=Yo No Se Perdonarte (Salsa)
TTITLE2=Dime (Salsa)
TTITLE3=El Amor Es Un Casino
TTITLE4=No Soy Quien (Salsa)
TTITLE5=Mi Salsa
TTITLE6=No Me Niegues La Vida (Salsa)
TTITLE7=Mi Mejor Amiga
TTITLE8=No Soy Quien (Balada)
TTITLE9=Dime (Balada)
TTITLE10=Yo No Se Perdonarte (Balada)
EXTD=
EXTT0=
EXTT1=
EXTT2=
EXTT3=
EXTT4=
EXTT5=
EXTT6=
EXTT7=
EXTT8=
EXTT9=
EXTT10=
PLAYORDER=
